<?xml version="1.0" encoding="utf-8"?>
<!-- Generator: Adobe Illustrator 22.0.0, SVG Export Plug-In . SVG Version: 6.00 Build 0)  -->
<svg version="1.1" id="Layer_1" xmlns="http://www.w3.org/2000/svg" xmlns:xlink="http://www.w3.org/1999/xlink" x="0px" y="0px"
	 viewBox="0 0 435 334" style="enable-background:new 0 0 435 334;" xml:space="preserve">
<style type="text/css">
	.st0{fill:#FFFFFF;}
	.st1{fill:none;stroke:#747FEB;stroke-width:2;stroke-linecap:round;stroke-linejoin:round;}
	.st2{fill:#CCEFFF;}
	.st3{fill:none;stroke:#747FEB;stroke-width:2;stroke-linejoin:round;}
	.st4{fill:none;stroke:#1050FF;stroke-width:2;stroke-linecap:round;stroke-linejoin:round;}
	.st5{fill:#E7F8FF;}
	.st6{filter:url(#Adobe_OpacityMaskFilter);}
	.st7{mask:url(#mask-2_1_);fill:#747FEB;}
	.st8{fill:#747FEB;}
</style>
<title>illustration-6</title>
<desc>Created with Sketch.</desc>
<g id="Page-1_1_">
	<g id="Desktop-HD-Copy-2" transform="translate(-777.000000, -1248.000000)">
		<g id="illustration-6" transform="translate(778.000000, 1249.000000)">
			<polygon id="Fill-138" class="st0" points="20,206 99,206 99,127 20,127 			"/>
			<polygon id="Stroke-139" class="st1" points="20,206 99,206 99,127 20,127 			"/>
			<polygon id="Fill-140" class="st0" points="262.6,198 244,179.4 290.4,133 305.9,136.1 309,151.6 			"/>
			<polygon id="Stroke-141" class="st1" points="262.6,198 244,179.4 290.4,133 305.9,136.1 309,151.6 			"/>
			<polygon id="Fill-142" class="st0" points="174,264 271,264 271,87 174,87 			"/>
			<polygon id="Fill-143" class="st2" points="159,34 158.8,10 136,22.2 			"/>
			<polygon id="Stroke-144" class="st1" points="159,34 158.8,10 136,22.2 			"/>
			<polygon id="Fill-145" class="st2" points="365.1,99 370,85 354,87.6 			"/>
			<polygon id="Stroke-146" class="st1" points="365.1,99 370,85 354,87.6 			"/>
			<polygon id="Fill-147" class="st2" points="110.1,295 115,281 99,283.6 			"/>
			<polygon id="Stroke-148" class="st1" points="110.1,295 115,281 99,283.6 			"/>
			<polygon id="Fill-149" class="st2" points="229.7,49 237,36.2 221,36 			"/>
			<polygon id="Stroke-150" class="st1" points="229.7,49 237,36.2 221,36 			"/>
			<polyline id="Stroke-151" class="st1" points="79,46 85,55.1 95.5,52 101.5,61 112,57.9 118,67 			"/>
			<polyline id="Stroke-152" class="st1" points="324,271 327.6,281.3 338.7,280.8 342.3,291.2 353.4,290.7 357,301 			"/>
			<polyline id="Stroke-153" class="st1" points="42,266 52.8,268 57.6,258 68.4,260 73.2,250 84,252 			"/>
			<polyline id="Stroke-154" class="st1" points="354,46 348,55.1 337.5,52 331.5,61 321,57.9 315,67 			"/>
			<polygon id="Stroke-155" class="st3" points="228,247.7 221.5,252 215,247.7 215,241.3 221.5,237 228,241.3 			"/>
			<polygon id="Fill-156" class="st2" points="286.3,14 278.6,12.4 277,4.7 281.7,0 289.4,1.6 291,9.3 			"/>
			<polygon id="Stroke-157" class="st3" points="286.3,14 278.6,12.4 277,4.7 281.7,0 289.4,1.6 291,9.3 			"/>
			<polygon id="Fill-158" class="st2" points="376.3,272 368.6,270.4 367,262.7 371.7,258 379.4,259.6 381,267.3 			"/>
			<polygon id="Stroke-159" class="st3" points="376.3,272 368.6,270.4 367,262.7 371.7,258 379.4,259.6 381,267.3 			"/>
			<path id="Stroke-160" class="st1" d="M20,332h382"/>
			<path id="Stroke-161" class="st1" d="M413,332h7"/>
			<path id="Stroke-162" class="st4" d="M0,332h7"/>
			<polygon id="Fill-163" class="st5" points="271,87 271,227 174,227 			"/>
			<polygon id="Stroke-164" class="st1" points="174,264 271,264 271,87 174,87 			"/>
			<path id="Stroke-165" class="st1" d="M174,226h97"/>
			<polygon id="Fill-166" class="st0" points="247.9,331 247.9,301.8 272,266.7 269.8,263 197.4,263 197.4,249.2 173.3,233.8 
				173.3,188.9 160.2,179 147,190 147,255.7 173.3,290.8 173.3,331 			"/>
			<polygon id="Fill-167" class="st0" points="290.6,197 295,210 290.6,223 239.6,223 233,210 239.6,197 			"/>
			<polygon id="Stroke-168" class="st1" points="290.6,197 295,210 290.6,223 239.6,223 233,210 239.6,197 			"/>
			<polygon id="Fill-169" class="st0" points="285.6,223 290,236 285.6,249 243.6,249 237,236 243.6,223 			"/>
			<polygon id="Stroke-170" class="st1" points="285.6,223 290,236 285.6,249 243.6,249 237,236 243.6,223 			"/>
			<g id="Page-1" transform="translate(33.000000, 141.000000)">
				<g id="Group-3">
					<g id="Clip-2">
					</g>
					<defs>
						<filter id="Adobe_OpacityMaskFilter" filterUnits="userSpaceOnUse" x="0" y="0.2" width="52.9" height="48.8">
							<feColorMatrix  type="matrix" values="1 0 0 0 0  0 1 0 0 0  0 0 1 0 0  0 0 0 1 0"/>
						</filter>
					</defs>
					<mask maskUnits="userSpaceOnUse" x="0" y="0.2" width="52.9" height="48.8" id="mask-2_1_">
						<g class="st6">
							<polygon id="path-1_1_" class="st0" points="0,0.2 52.9,0.2 52.9,49 0,49 							"/>
						</g>
					</mask>
					<path id="Fill-1" class="st7" d="M51.7,41.8l-8.1-3.4c-0.1-0.1-0.3-0.1-0.4,0l-24.7,9.4c-0.1,0-0.1,0-0.1,0c0,0,0,0,0-0.1V33.2
						v-9.7c0-0.3,0.3-0.7,0.5-0.8l32.6-12.4h0c0.1,0,0.1,0,0.1,0c0,0,0,0,0,0.1V41.8z M17.2,23.5v9.3l-8,3C9.1,35.9,9,35.9,9,36
						l-7.8,9.2V14.6c0-0.3,0.3-0.7,0.5-0.8L34.4,1.4c0.1,0,0.1,0,0.1,0c0,0,0,0,0,0.1v14l-15.9,6C17.8,21.8,17.2,22.7,17.2,23.5z
						 M52.4,9.3c-0.3-0.2-0.8-0.3-1.2-0.1l-15.5,5.9V1.5c0-0.5-0.2-0.9-0.5-1.1c-0.3-0.2-0.8-0.3-1.2-0.1L1.3,12.6
						C0.6,12.9,0,13.8,0,14.6v32.3c0,0.3,0.2,0.5,0.4,0.6c0.1,0,0.1,0,0.2,0c0.2,0,0.3-0.1,0.5-0.2l8.7-10.3l7.5-2.8v13.6
						c0,0.5,0.2,0.9,0.5,1.1c0.2,0.1,0.4,0.2,0.7,0.2c0.2,0,0.3,0,0.5-0.1l24.5-9.3l8.7,3.7c0.2,0.1,0.4,0.1,0.6-0.1
						c0.2-0.1,0.3-0.3,0.3-0.5V10.4C52.9,10,52.8,9.6,52.4,9.3z"/>
				</g>
			</g>
			<polyline id="Stroke-178" class="st1" points="110,152 110,218 44,218 			"/>
			<polygon id="Fill-179" class="st0" points="433,200.3 358.5,200.3 341,219 341,130 433,130 			"/>
			<polygon id="Fill-181" class="st2" points="354.1,191 341,205 341,218 358.5,199.6 433,199.6 433,191 			"/>
			<polygon id="Stroke-183" class="st1" points="433,200.3 358.5,200.3 341,219 341,130 433,130 			"/>
			<path id="Stroke-186" class="st1" d="M358,183h66"/>
			
				<g id="if_recycle_transaction_Bitcoin_card_currency_money_payment_finance_1007386" transform="translate(366.000000, 136.000000)">
				<path id="path5678-62-4-7-9" class="st8" d="M22.7,0c-0.2,0-0.4,0-0.7,0c-1.8,0.2-3.2,1.7-4.4,3.7l-2.3,3.9
					c-0.1,0.2-0.2,0.5,0,0.7c0.1,0.2,0.4,0.4,0.6,0.4c0.3,0,0.5-0.2,0.6-0.4l2.3-3.9c0,0,0,0,0,0c1-1.8,2.2-2.9,3.3-3
					c1.1-0.1,2.3,0.5,3.5,2.6l3.3,6.9l-6-1.8c-0.2-0.1-0.5,0-0.7,0.2C22,9.5,22,9.8,22,10c0.1,0.3,0.3,0.5,0.5,0.5l7.6,2.2
					c0.2,0.1,0.4,0,0.5-0.1c0.2-0.1,0.3-0.3,0.3-0.4l2.1-7.7c0.1-0.2,0-0.5-0.1-0.6c-0.1-0.2-0.4-0.3-0.6-0.3
					c-0.3,0-0.6,0.2-0.7,0.5l-1.6,5.9l-3.2-6.7c0,0,0,0,0,0C25.7,1.3,24.2,0.1,22.7,0z M22.1,12.3c-5.9,0-10.6,4.8-10.6,10.7
					c0,5.9,4.7,10.7,10.6,10.7c5.9,0,10.7-4.8,10.7-10.7c0-0.1,0-0.2-0.1-0.3C32.6,17,27.9,12.3,22.1,12.3z M22.1,13.8
					c5.1,0,9.3,4.2,9.3,9.3c0,5.1-4.1,9.3-9.3,9.3c-5.1,0-9.2-4.2-9.2-9.3C12.9,17.9,17,13.8,22.1,13.8z M8.4,21.7
					C8.4,21.7,8.4,21.7,8.4,21.7c-0.1,0-0.2,0-0.2,0l-7.7,2C0.3,23.8,0.1,24,0,24.2s0,0.5,0.2,0.7c0.2,0.2,0.5,0.3,0.7,0.2l5.9-1.5
					l-4.1,6.1c0,0,0,0,0,0c-1.4,2.4-1.5,4.5-0.4,5.9s3.1,2,5.4,2l4.5,0c0.3,0,0.5-0.1,0.6-0.4s0.1-0.5,0-0.7
					c-0.1-0.2-0.4-0.4-0.6-0.4l-4.5,0c0,0,0,0,0,0c-2.1,0-3.6-0.5-4.2-1.4c-0.7-0.9-0.7-2.2,0.5-4.3l4.2-6.3l1.5,6.2
					c0.1,0.2,0.2,0.4,0.5,0.5c0.2,0.1,0.5,0,0.7-0.2c0.2-0.2,0.3-0.4,0.2-0.7l-1.9-7.8C9,21.9,8.7,21.7,8.4,21.7z M37.2,25L37.2,25
					c-0.3,0-0.5,0.2-0.6,0.4c-0.1,0.2-0.1,0.5,0.1,0.7l2.5,3.7c0,0,0,0,0,0c1.2,1.7,1.6,3.3,1.3,4.3c-0.3,1-1.4,1.9-3.8,2.1
					l-7.6,0.1l4.2-4.8c0.2-0.2,0.2-0.5,0.1-0.8c-0.1-0.3-0.4-0.4-0.6-0.4c-0.2,0-0.4,0.1-0.5,0.2l-5.2,6c-0.1,0.1-0.2,0.3-0.2,0.5
					c0,0.2,0.1,0.4,0.2,0.5l6,5.2c0.2,0.2,0.5,0.2,0.7,0.2c0.2-0.1,0.4-0.3,0.5-0.6c0-0.3-0.1-0.5-0.3-0.7l-4.6-4l7.3-0.1
					c0,0,0,0,0,0c2.8-0.2,4.5-1.3,5.1-3c0.6-1.7-0.1-3.7-1.5-5.6l0,0l-2.5-3.7C37.7,25.1,37.5,25,37.2,25z"/>
			</g>
			<polygon id="Fill-188" class="st5" points="198,276 198,264 242.9,264 249,276 			"/>
			<path id="Fill-189" class="st0" d="M198,273v-9V273z"/>
			<path id="Stroke-190" class="st1" d="M198,273v-9"/>
			<polygon id="Stroke-191" class="st1" points="247.9,331 247.9,301.8 272,266.7 269.8,263 197.4,263 197.4,249.2 173.3,233.8 
				173.3,188.9 160.2,179 147,190 147,255.7 173.3,290.8 173.3,331 			"/>
			<polygon id="Fill-192" class="st0" points="281.6,249 286,262 281.6,275 248.6,275 242,262 248.6,249 			"/>
			<polygon id="Stroke-193" class="st1" points="281.6,249 286,262 281.6,275 248.6,275 242,262 248.6,249 			"/>
		</g>
	</g>
</g>
<g>
	<path class="st8" d="M387.8,164.3c-0.3,0-0.7-0.1-0.9-0.4l-3.7-3.7l5.9-7.4l5.9,7.4l-3.7,3.7c-0.2,0.2-0.6,0.4-0.9,0.4
		c-0.3,0-0.7-0.1-0.9-0.4l-2.8-2.8c-0.5-0.5-0.5-1.3,0-1.8l1.5-1.5c0.2-0.2,0.6-0.4,0.9-0.4c0.3,0,0.7,0.1,0.9,0.4l1.5,1.5
		c0.2,0.2,0.4,0.6,0.4,0.9s-0.1,0.7-0.4,0.9l-1.8,1.8l0.4,0.4c0.1,0.1,0.2,0.1,0.3,0.1c0.1,0,0.2,0,0.3-0.1l3.1-3.1l-4.8-6l-4.8,6
		l3.1,3.1c0.1,0.1,0.2,0.1,0.3,0.1c0.1,0,0.2,0,0.3-0.1l0.1-0.1l0.6,0.6l-0.1,0.1C388.5,164.2,388.2,164.3,387.8,164.3z
		 M389.1,158.3c-0.1,0-0.2,0-0.3,0.1l-1.5,1.5c-0.2,0.2-0.2,0.4,0,0.6l1.8,1.8l1.8-1.8c0.1-0.1,0.1-0.2,0.1-0.3c0-0.1,0-0.2-0.1-0.3
		l-1.5-1.5C389.4,158.4,389.3,158.3,389.1,158.3L389.1,158.3z"/>
	<polygon class="st8" points="386.3,166 382.1,161.7 382.6,161.1 386.7,165.1 391.6,165.1 395.7,161.1 396.2,161.7 392,166 	"/>
</g>
<g>
	<path class="st8" d="M67.1,176.8c-0.4,0.2-0.7,0.2-0.9,0l-3.6-2.5l7.2-11.7l5.6,5.8l-4.4,6.2c-0.3,0.4-0.6,0.7-1,0.9
		c-0.4,0.2-0.7,0.2-0.9,0l-2.8-1.9c-0.5-0.3-0.4-1.3,0.2-2.1l1.7-2.5c0.3-0.4,0.6-0.7,1-0.9c0.4-0.2,0.7-0.2,0.9,0l1.4,1
		c0.2,0.2,0.3,0.5,0.3,0.9c0,0.4-0.2,0.8-0.5,1.3l-2.1,3l0.4,0.3c0.1,0.1,0.2,0.1,0.3,0c0.1-0.1,0.2-0.2,0.3-0.3l3.7-5.3l-4.6-4.6
		l-5.8,9.5l3.1,2.1c0.1,0.1,0.2,0.1,0.3,0c0.1-0.1,0.2-0.2,0.3-0.3l0.2-0.2l0.6,0.4l-0.2,0.2C67.9,176.3,67.5,176.6,67.1,176.8z
		 M69.2,169.1c-0.1,0.1-0.2,0.2-0.3,0.3l-1.7,2.5c-0.2,0.3-0.2,0.6-0.1,0.7l1.7,1.2l2.1-3c0.1-0.1,0.2-0.3,0.2-0.4
		c0-0.1,0-0.2-0.1-0.3l-1.4-1C69.4,169,69.3,169,69.2,169.1L69.2,169.1z"/>
	<polygon class="st8" points="65.3,179.6 61.2,176.7 61.8,175.6 65.8,178.4 71.2,175.9 76,169 76.5,169.5 71.5,176.7 	"/>
</g>
</svg>
