<svg width="107px" height="29px" id="Layer_1" data-name="Layer 1" xmlns="http://www.w3.org/2000/svg" viewBox="0 0 400 400"><defs><style>.cls-1{fill:#232447;}</style></defs><title>endurio</title><path class="cls-1" d="M51,318.94a5,5,0,0,0,.8,2.73,7.9,7.9,0,0,0,2.13,2.19,11,11,0,0,0,3.23,1.49,14.36,14.36,0,0,0,4,.54H84.76a.88.88,0,0,1,1,1V337a.88.88,0,0,1-1,1H68a59.48,59.48,0,0,1-14-1.39,21,21,0,0,1-9-4.42,16.48,16.48,0,0,1-4.87-7.7,38.33,38.33,0,0,1-1.44-11.22,31.21,31.21,0,0,1,2.43-13.16,22.31,22.31,0,0,1,6.36-8.29,23.47,23.47,0,0,1,8.84-4.32,40.47,40.47,0,0,1,9.88-1.24,34.79,34.79,0,0,1,10.62,1.44,19.71,19.71,0,0,1,7.35,4.07,15.6,15.6,0,0,1,4.22,6.41,25.16,25.16,0,0,1,1.34,8.44V317a.88.88,0,0,1-1,1H52A.88.88,0,0,0,51,318.94Zm26.52-12.61a.88.88,0,0,0,1-1,6.84,6.84,0,0,0-3.48-6q-3.48-2.24-9.73-2.23a18.58,18.58,0,0,0-4.42.59,25,25,0,0,0-4.66,1.64,12.42,12.42,0,0,0-3.73,2.58A4.84,4.84,0,0,0,51,305.34a.88.88,0,0,0,1,1Z"/><path class="cls-1" d="M109.19,334.83c0,2.12-.93,3.18-2.78,3.18H99.76a2.16,2.16,0,0,1-2-1.19,5.76,5.76,0,0,1-.64-2.78V292.83a6.29,6.29,0,0,1,2-4.52,7.07,7.07,0,0,1,5.22-2h22.44a15.49,15.49,0,0,1,6.65,1.44,18.54,18.54,0,0,1,5.41,3.82,17.31,17.31,0,0,1,3.63,5.47,16.27,16.27,0,0,1,1.29,6.35V337c0,.67-.37,1-1.09,1h-10a.88.88,0,0,1-1-1V305.44a9.55,9.55,0,0,0-.74-4.07,6,6,0,0,0-2.09-2.49,8.51,8.51,0,0,0-3.12-1.24,20.58,20.58,0,0,0-3.88-.35h-9.63a3.07,3.07,0,0,0-2,.8,2.24,2.24,0,0,0-1,1.69Z"/><path class="cls-1" d="M186.74,285.28V267.8a.88.88,0,0,1,1-1h10.13a.88.88,0,0,1,1,1V337a.88.88,0,0,1-1,1H167a13.49,13.49,0,0,1-8.14-2.44,19.66,19.66,0,0,1-5.56-6.2,30.11,30.11,0,0,1-3.23-8.24,38.28,38.28,0,0,1-1-8.64,51.67,51.67,0,0,1,1-10.73,25.1,25.1,0,0,1,3.23-8.29,15.59,15.59,0,0,1,5.56-5.31,16.41,16.41,0,0,1,8.14-1.89h18.77A.88.88,0,0,0,186.74,285.28Zm0,14.1a.88.88,0,0,0-1-1H174.93a26.84,26.84,0,0,0-5.61.54A9.94,9.94,0,0,0,165,301a9.69,9.69,0,0,0-2.83,4.32,21.34,21.34,0,0,0-1,7.15,18.59,18.59,0,0,0,1,6.65,9.67,9.67,0,0,0,2.78,4.07,10.38,10.38,0,0,0,4.32,2.09,25.43,25.43,0,0,0,5.71.59h10.82a.88.88,0,0,0,1-1Z"/><path class="cls-1" d="M239.67,286.27H249.8a.88.88,0,0,1,1,1v39.12a8.16,8.16,0,0,1-1.93,5.46,15,15,0,0,1-5.07,3.77,27.09,27.09,0,0,1-7,2.19,45.54,45.54,0,0,1-7.89.69,46.12,46.12,0,0,1-8-.69,26.36,26.36,0,0,1-7-2.19,15,15,0,0,1-5-3.77,8.16,8.16,0,0,1-1.94-5.46V287.27a.88.88,0,0,1,1-1H218a.89.89,0,0,1,1,1v34.85a2.32,2.32,0,0,0,.84,1.69A7.79,7.79,0,0,0,222,325.2a13.48,13.48,0,0,0,3.13.89,22.2,22.2,0,0,0,3.68.3,21.31,21.31,0,0,0,3.62-.3,14.39,14.39,0,0,0,3.13-.89,7.54,7.54,0,0,0,2.23-1.39,2.33,2.33,0,0,0,.85-1.69V287.27A.88.88,0,0,1,239.67,286.27Z"/><path class="cls-1" d="M285.05,286.27a.88.88,0,0,1,1,1v10.12a.88.88,0,0,1-1,1h-9.53a2.65,2.65,0,0,0-1.59.49,7.12,7.12,0,0,0-1.24,1.14,5.2,5.2,0,0,0-.85,1.39,3.68,3.68,0,0,0-.3,1.35V337a.88.88,0,0,1-1,1H259.43a.88.88,0,0,1-1-1V299.28a12.13,12.13,0,0,1,1-5,13.37,13.37,0,0,1,7-7,12.59,12.59,0,0,1,5.06-1Z"/><path class="cls-1" d="M292.4,266.81h10.12a.88.88,0,0,1,1,1v10.13a.88.88,0,0,1-1,1H292.4a.88.88,0,0,1-1-1V267.8A.88.88,0,0,1,292.4,266.81Zm-1,20.46a.88.88,0,0,1,1-1h10.12a.88.88,0,0,1,1,1V337a.88.88,0,0,1-1,1H292.4a.88.88,0,0,1-1-1Z"/><path class="cls-1" d="M361.31,318a38.9,38.9,0,0,1-1,9.83,14.44,14.44,0,0,1-3.18,6.16,11.31,11.31,0,0,1-5.41,3.17,30,30,0,0,1-7.85.9H326.16a15.57,15.57,0,0,1-7.55-1.64,13.69,13.69,0,0,1-4.77-4.27,16.41,16.41,0,0,1-2.48-6,33.38,33.38,0,0,1-.69-6.8V301.86a16.1,16.1,0,0,1,1.24-6.45,15.09,15.09,0,0,1,3.32-4.92,14.56,14.56,0,0,1,4.92-3.13,16.73,16.73,0,0,1,6-1.09h20.06a15.6,15.6,0,0,1,5.41,1,14.5,14.5,0,0,1,4.86,2.92,15.22,15.22,0,0,1,3.48,4.67,14.18,14.18,0,0,1,1.34,6.31Zm-12.21-14.6a3.34,3.34,0,0,0-.75-2.13,6.14,6.14,0,0,0-1.94-1.59,9.44,9.44,0,0,0-2.68-.95,15.76,15.76,0,0,0-3-.29H329.93a14.08,14.08,0,0,0-2.58.24,7.68,7.68,0,0,0-2.34.85,5.37,5.37,0,0,0-1.73,1.59,4,4,0,0,0-.7,2.38v15.89a5.84,5.84,0,0,0,.85,3.28,6.26,6.26,0,0,0,2.13,2,8,8,0,0,0,2.78,1,16.48,16.48,0,0,0,2.78.25h9.14a11.18,11.18,0,0,0,6.2-1.69,5,5,0,0,0,2.64-4.27V303.35Z"/><path class="cls-1" d="M181.81,224.44a18,18,0,0,1-12.81-5.3l-52.38-52.37L200.84,61.5l84.22,105.27-52.37,52.37a18.15,18.15,0,0,1-25.64,0l-40.05-40a18.16,18.16,0,0,1,0-25.63l20.95-21a18.13,18.13,0,0,1,25.65,0l21,21a18.13,18.13,0,0,1,0,25.64L209.4,204.37l6.21,6.21a6,6,0,0,0,8.52,0l44.71-44.71-68-85-68,85,44.71,44.71a6,6,0,0,0,8.53,0l2-2,8.56,8.56-2,2A18,18,0,0,1,181.81,224.44Zm19-85.19a6,6,0,0,0-4.26,1.77l-21,21a6,6,0,0,0,0,8.52l25.28,25.28,25.24-25.23a6,6,0,0,0,0-8.53l-21-21a6,6,0,0,0-4.27-1.76Z"/><polygon class="cls-1" points="160.28 248.47 99.71 187.91 107.32 178.4 165.29 236.37 236.38 236.37 294.37 178.4 301.97 187.91 241.4 248.47 160.28 248.47"/></svg>