<svg  width="107px" height="29px" id="Layer_1" data-name="Layer 1" xmlns="http://www.w3.org/2000/svg" viewBox="0 0 747 192.83"><defs><style>.cls-1{fill:#232447;}</style></defs><title>endurio</title><path class="cls-1" d="M270,121.13a7.51,7.51,0,0,0,1.21,4.15,11.87,11.87,0,0,0,3.25,3.31,16.07,16.07,0,0,0,4.9,2.26,21.39,21.39,0,0,0,6,.83h35.94a1.34,1.34,0,0,1,1.51,1.51v15.37a1.34,1.34,0,0,1-1.51,1.51H295.8A89.84,89.84,0,0,1,274.59,148a32,32,0,0,1-13.74-6.71,25,25,0,0,1-7.4-11.68,58.09,58.09,0,0,1-2.19-17q0-12.06,3.7-20A33.81,33.81,0,0,1,264.62,80a35.86,35.86,0,0,1,13.44-6.55,61,61,0,0,1,15-1.89,53,53,0,0,1,16.16,2.19,30,30,0,0,1,11.17,6.18,23.67,23.67,0,0,1,6.42,9.72,38,38,0,0,1,2,12.81v15.68a1.33,1.33,0,0,1-1.51,1.5H271.49A1.34,1.34,0,0,0,270,121.13ZM310.3,102a1.34,1.34,0,0,0,1.51-1.51q0-5.72-5.29-9.12T291.72,88a28.25,28.25,0,0,0-6.72.91,38.41,38.41,0,0,0-7.09,2.48,19,19,0,0,0-5.66,3.92,7.32,7.32,0,0,0-2.27,5.2,1.33,1.33,0,0,0,1.51,1.51Z"/><path class="cls-1" d="M358.46,145.25q0,4.81-4.23,4.82H344.12a3.29,3.29,0,0,1-3.1-1.81,8.74,8.74,0,0,1-1-4.22V81.49a9.51,9.51,0,0,1,3.1-6.86,10.76,10.76,0,0,1,7.92-3.09h34.13a23.55,23.55,0,0,1,10.11,2.19,28.05,28.05,0,0,1,8.23,5.8A26.24,26.24,0,0,1,409,87.82a24.68,24.68,0,0,1,2,9.65v51.09c0,1-.56,1.51-1.66,1.51H394.1a1.33,1.33,0,0,1-1.51-1.51V100.63a14.51,14.51,0,0,0-1.14-6.18,9,9,0,0,0-3.17-3.76,12.8,12.8,0,0,0-4.75-1.89,31.16,31.16,0,0,0-5.89-.53H363a4.72,4.72,0,0,0-3.09,1.21A3.4,3.4,0,0,0,358.46,92Z"/><path class="cls-1" d="M476.38,70V43.51A1.34,1.34,0,0,1,477.89,42H493.3a1.34,1.34,0,0,1,1.51,1.51V148.56a1.34,1.34,0,0,1-1.51,1.51h-47A20.62,20.62,0,0,1,434,146.38,29.76,29.76,0,0,1,425.5,137a45.32,45.32,0,0,1-4.91-12.51A57.92,57.92,0,0,1,419,111.33a78.1,78.1,0,0,1,1.58-16.27,38,38,0,0,1,4.91-12.59A23.54,23.54,0,0,1,434,74.41a25,25,0,0,1,12.38-2.87h28.53A1.33,1.33,0,0,0,476.38,70Zm0,21.4a1.34,1.34,0,0,0-1.51-1.51H458.42a40.83,40.83,0,0,0-8.54.83,15.1,15.1,0,0,0-6.64,3.17,14.79,14.79,0,0,0-4.3,6.55,32.68,32.68,0,0,0-1.51,10.85,28.36,28.36,0,0,0,1.51,10.1,14.5,14.5,0,0,0,4.23,6.18,15.65,15.65,0,0,0,6.56,3.17,38.3,38.3,0,0,0,8.69.9h16.45a1.33,1.33,0,0,0,1.51-1.5Z"/><path class="cls-1" d="M556.86,71.54h15.4a1.34,1.34,0,0,1,1.51,1.51v59.39a12.42,12.42,0,0,1-2.94,8.29,22.58,22.58,0,0,1-7.7,5.72,41.69,41.69,0,0,1-10.72,3.32,69.18,69.18,0,0,1-12,1,70,70,0,0,1-12.15-1,40.24,40.24,0,0,1-10.64-3.32,22.68,22.68,0,0,1-7.63-5.72,12.42,12.42,0,0,1-2.94-8.29V73.05a1.34,1.34,0,0,1,1.51-1.51H524a1.34,1.34,0,0,1,1.51,1.51V126a3.51,3.51,0,0,0,1.28,2.57,12.07,12.07,0,0,0,3.32,2.11,19.86,19.86,0,0,0,4.76,1.35,34.07,34.07,0,0,0,5.58.46,32.89,32.89,0,0,0,5.52-.46,21.19,21.19,0,0,0,4.75-1.35,11.85,11.85,0,0,0,3.4-2.11,3.54,3.54,0,0,0,1.28-2.57V73.05A1.34,1.34,0,0,1,556.86,71.54Z"/><path class="cls-1" d="M625.86,71.54a1.34,1.34,0,0,1,1.51,1.51V88.43a1.33,1.33,0,0,1-1.51,1.5H611.37a4,4,0,0,0-2.42.76,10.31,10.31,0,0,0-1.88,1.73,7.49,7.49,0,0,0-1.29,2.11,5.55,5.55,0,0,0-.45,2v52a1.34,1.34,0,0,1-1.51,1.51H586.91a1.33,1.33,0,0,1-1.51-1.51V91.29A18.71,18.71,0,0,1,587,83.75a20.59,20.59,0,0,1,4.31-6.33,20.29,20.29,0,0,1,6.34-4.29,18.92,18.92,0,0,1,7.7-1.59Z"/><path class="cls-1" d="M637,42h15.4A1.34,1.34,0,0,1,654,43.51V58.88a1.34,1.34,0,0,1-1.51,1.51H637a1.33,1.33,0,0,1-1.51-1.51V43.51A1.34,1.34,0,0,1,637,42Zm-1.51,31.05A1.34,1.34,0,0,1,637,71.54h15.4A1.34,1.34,0,0,1,654,73.05v75.51a1.34,1.34,0,0,1-1.51,1.51H637a1.33,1.33,0,0,1-1.51-1.51Z"/><path class="cls-1" d="M741.83,119.62a58.49,58.49,0,0,1-1.59,14.93,21.76,21.76,0,0,1-4.83,9.34,17.19,17.19,0,0,1-8.23,4.82,45.6,45.6,0,0,1-11.93,1.36H688.37a23.61,23.61,0,0,1-11.47-2.49,20.4,20.4,0,0,1-7.25-6.48,24.88,24.88,0,0,1-3.77-9,50,50,0,0,1-1.06-10.33V95.21a24.47,24.47,0,0,1,1.89-9.8,23,23,0,0,1,5-7.46,22,22,0,0,1,7.48-4.75,25.28,25.28,0,0,1,9.13-1.66h30.5a24.12,24.12,0,0,1,8.23,1.51,22.24,22.24,0,0,1,7.4,4.45,23.3,23.3,0,0,1,5.29,7.08,21.42,21.42,0,0,1,2,9.57ZM723.25,97.47a5,5,0,0,0-1.13-3.24,9.38,9.38,0,0,0-2.94-2.41,14.58,14.58,0,0,0-4.08-1.44,23.19,23.19,0,0,0-4.53-.45H694.11a20.74,20.74,0,0,0-3.92.38,11.44,11.44,0,0,0-3.55,1.28A8.15,8.15,0,0,0,684,94a6.18,6.18,0,0,0-1,3.62v24.11a9,9,0,0,0,1.28,5,9.59,9.59,0,0,0,3.25,3.09,12.52,12.52,0,0,0,4.23,1.51,25.74,25.74,0,0,0,4.22.37h13.89a17.1,17.1,0,0,0,9.44-2.56q4-2.57,4-6.48V97.47Z"/><path class="cls-1" d="M87.66,165.74a18,18,0,0,1-12.81-5.29L22.47,108.17,106.69,3.09l84.22,105.08-52.37,52.28a18.18,18.18,0,0,1-25.64,0l-40.05-40a18.09,18.09,0,0,1,0-25.58l21-21a18.15,18.15,0,0,1,25.65,0l21,21a18.07,18.07,0,0,1,0,25.59l-25.23,25.19,6.2,6.2a6,6,0,0,0,8.53,0l44.71-44.63-68-84.85-68,84.85L83.4,151.91a6,6,0,0,0,4.26,1.76,6,6,0,0,0,4.27-1.76l2-2,8.56,8.54-2,2A18,18,0,0,1,87.66,165.74Zm19-85a6,6,0,0,0-4.26,1.76l-21,21a6,6,0,0,0,0,8.5l25.28,25.24L131.93,112a6,6,0,0,0,0-8.51l-21-21a6,6,0,0,0-4.27-1.76Z"/><polygon class="cls-1" points="66.13 189.73 5.56 129.28 13.16 119.79 71.14 177.66 142.23 177.66 200.22 119.79 207.82 129.28 147.25 189.73 66.13 189.73"/></svg>