<svg width="107px" height="29px" id="Layer_1" data-name="Layer 1" xmlns="http://www.w3.org/2000/svg" viewBox="0 0 889.67 237.17"><defs><style>.cls-1{fill:#232447;}</style></defs><title>endurio</title><path class="cls-1" d="M341.31,143.3a7.51,7.51,0,0,0,1.21,4.15,11.87,11.87,0,0,0,3.25,3.31,16.19,16.19,0,0,0,4.9,2.26,21.44,21.44,0,0,0,6,.83h35.94a1.34,1.34,0,0,1,1.51,1.51v15.37a1.33,1.33,0,0,1-1.51,1.51H367.13a89.84,89.84,0,0,1-21.21-2.11,32,32,0,0,1-13.74-6.71,25.07,25.07,0,0,1-7.4-11.68,58.09,58.09,0,0,1-2.19-17q0-12.06,3.7-20A33.69,33.69,0,0,1,336,102.16a35.73,35.73,0,0,1,13.44-6.56,61,61,0,0,1,15-1.88,53.28,53.28,0,0,1,16.16,2.18,30,30,0,0,1,11.17,6.18,23.67,23.67,0,0,1,6.42,9.72,38,38,0,0,1,2,12.81v15.68a1.33,1.33,0,0,1-1.51,1.5H342.82A1.34,1.34,0,0,0,341.31,143.3Zm40.32-19.14a1.34,1.34,0,0,0,1.51-1.51q0-5.72-5.29-9.12t-14.79-3.39a28.11,28.11,0,0,0-6.72.91,38.25,38.25,0,0,0-7.1,2.48,19,19,0,0,0-5.66,3.92,7.34,7.34,0,0,0-2.27,5.2,1.34,1.34,0,0,0,1.51,1.51Z"/><path class="cls-1" d="M429.79,167.42c0,3.22-1.41,4.82-4.22,4.82H415.45a3.29,3.29,0,0,1-3.1-1.81,8.74,8.74,0,0,1-1-4.22V103.66a9.47,9.47,0,0,1,3.1-6.85,10.72,10.72,0,0,1,7.92-3.09h34.13a23.77,23.77,0,0,1,10.12,2.18,28,28,0,0,1,8.22,5.8,26.27,26.27,0,0,1,5.52,8.29,24.85,24.85,0,0,1,2,9.65v51.09c0,1-.56,1.51-1.66,1.51H465.43a1.33,1.33,0,0,1-1.51-1.51V122.8a14.68,14.68,0,0,0-1.13-6.18,9.1,9.1,0,0,0-3.17-3.76,13.1,13.1,0,0,0-4.76-1.89,31.08,31.08,0,0,0-5.89-.53H434.32a4.74,4.74,0,0,0-3.09,1.21,3.4,3.4,0,0,0-1.44,2.56Z"/><path class="cls-1" d="M547.72,92.21V65.68a1.34,1.34,0,0,1,1.51-1.51h15.4a1.34,1.34,0,0,1,1.51,1.51v105a1.34,1.34,0,0,1-1.51,1.51h-47a20.64,20.64,0,0,1-12.38-3.69,29.87,29.87,0,0,1-8.46-9.42,45.63,45.63,0,0,1-4.91-12.51,57.9,57.9,0,0,1-1.58-13.11,78.13,78.13,0,0,1,1.58-16.28,38.29,38.29,0,0,1,4.91-12.59,23.62,23.62,0,0,1,8.46-8.06,25,25,0,0,1,12.38-2.86h28.54A1.34,1.34,0,0,0,547.72,92.21Zm0,21.4a1.34,1.34,0,0,0-1.51-1.51H529.75a40.73,40.73,0,0,0-8.53.83,15.19,15.19,0,0,0-6.65,3.17,14.87,14.87,0,0,0-4.3,6.55,32.7,32.7,0,0,0-1.51,10.86,28.34,28.34,0,0,0,1.51,10.09,14.67,14.67,0,0,0,4.23,6.18,15.63,15.63,0,0,0,6.57,3.17,38.14,38.14,0,0,0,8.68.9h16.46a1.33,1.33,0,0,0,1.51-1.5Z"/><path class="cls-1" d="M628.2,93.72h15.4a1.33,1.33,0,0,1,1.51,1.5v59.39a12.36,12.36,0,0,1-3,8.29,22.58,22.58,0,0,1-7.7,5.72,41.56,41.56,0,0,1-10.72,3.32,69.16,69.16,0,0,1-12,1.06,70,70,0,0,1-12.16-1.06,40.36,40.36,0,0,1-10.64-3.32,22.78,22.78,0,0,1-7.63-5.72,12.41,12.41,0,0,1-2.94-8.29V95.22a1.33,1.33,0,0,1,1.51-1.5h15.4a1.33,1.33,0,0,1,1.51,1.5v52.9a3.54,3.54,0,0,0,1.28,2.57,12,12,0,0,0,3.32,2.11,19.86,19.86,0,0,0,4.76,1.35,33,33,0,0,0,5.59.46,31.76,31.76,0,0,0,5.51-.46A21.19,21.19,0,0,0,622,152.8a11.64,11.64,0,0,0,3.4-2.11,3.52,3.52,0,0,0,1.29-2.57V95.22A1.33,1.33,0,0,1,628.2,93.72Z"/><path class="cls-1" d="M697.2,93.72a1.33,1.33,0,0,1,1.51,1.5V110.6a1.33,1.33,0,0,1-1.51,1.5H682.7a4.12,4.12,0,0,0-2.42.76,10.31,10.31,0,0,0-1.88,1.73,7.73,7.73,0,0,0-1.29,2.11,5.55,5.55,0,0,0-.45,2v52a1.33,1.33,0,0,1-1.51,1.51H658.24a1.33,1.33,0,0,1-1.51-1.51V113.46a18.56,18.56,0,0,1,1.59-7.54A20.3,20.3,0,0,1,669,95.3a19,19,0,0,1,7.7-1.58Z"/><path class="cls-1" d="M708.37,64.17h15.4a1.34,1.34,0,0,1,1.51,1.51V81.05a1.34,1.34,0,0,1-1.51,1.51h-15.4a1.33,1.33,0,0,1-1.51-1.51V65.68A1.34,1.34,0,0,1,708.37,64.17Zm-1.51,31.05a1.33,1.33,0,0,1,1.51-1.5h15.4a1.33,1.33,0,0,1,1.51,1.5v75.51a1.34,1.34,0,0,1-1.51,1.51h-15.4a1.33,1.33,0,0,1-1.51-1.51Z"/><path class="cls-1" d="M813.16,141.79a58.49,58.49,0,0,1-1.59,14.93,21.76,21.76,0,0,1-4.83,9.34,17.19,17.19,0,0,1-8.23,4.82,45.6,45.6,0,0,1-11.93,1.36H759.7a23.61,23.61,0,0,1-11.47-2.49,20.4,20.4,0,0,1-7.25-6.48,24.88,24.88,0,0,1-3.77-9,49.92,49.92,0,0,1-1.06-10.32V117.38a24.47,24.47,0,0,1,1.89-9.8,22.84,22.84,0,0,1,5.06-7.46,21.82,21.82,0,0,1,7.47-4.75,25.28,25.28,0,0,1,9.13-1.65h30.51a24.15,24.15,0,0,1,8.23,1.5,22.29,22.29,0,0,1,7.39,4.45,23.3,23.3,0,0,1,5.29,7.08,21.45,21.45,0,0,1,2,9.57Zm-18.58-22.15a5,5,0,0,0-1.13-3.24,9.29,9.29,0,0,0-2.94-2.41,14.26,14.26,0,0,0-4.08-1.43,22.46,22.46,0,0,0-4.53-.46H765.44a20.74,20.74,0,0,0-3.92.38,11.54,11.54,0,0,0-3.55,1.28,8,8,0,0,0-2.64,2.41,6.12,6.12,0,0,0-1.06,3.62v24.12a9,9,0,0,0,1.28,5A9.59,9.59,0,0,0,758.8,152a12.6,12.6,0,0,0,4.23,1.51,26,26,0,0,0,4.23.37h13.89a17.07,17.07,0,0,0,9.43-2.56q4-2.56,4-6.48V119.64Z"/><path class="cls-1" d="M159,187.91a18,18,0,0,1-12.81-5.29L93.81,130.35,178,25.26l84.22,105.09-52.37,52.27a18.18,18.18,0,0,1-25.64,0l-40-40a18.1,18.1,0,0,1,0-25.58l21-21a18.15,18.15,0,0,1,25.65,0l21,21a18.07,18.07,0,0,1,0,25.59l-25.23,25.19,6.21,6.2a6,6,0,0,0,8.52,0L246,129.45,178,44.6l-68,84.85,44.71,44.63a6,6,0,0,0,8.53,0l2-2,8.56,8.54-2,2A18,18,0,0,1,159,187.91Zm19-85a6,6,0,0,0-4.26,1.76l-21,21a6,6,0,0,0,0,8.51L178,159.34l25.24-25.19a6,6,0,0,0,0-8.51l-21-21a6,6,0,0,0-4.27-1.76Z"/><polygon class="cls-1" points="137.46 211.9 76.89 151.45 84.5 141.96 142.47 199.83 213.57 199.83 271.55 141.96 279.15 151.45 218.58 211.9 137.46 211.9"/></svg>